<svg xmlns="http://www.w3.org/2000/svg" xmlns:xlink="http://www.w3.org/1999/xlink" width="500" zoomAndPan="magnify" viewBox="0 0 375 374.999991" height="500" preserveAspectRatio="xMidYMid meet" version="1.0"><rect x="-37.5" width="450" fill="#ffffff" y="-37.499999" height="449.999989" fill-opacity="1"/><rect x="-37.5" width="450" fill="#000000" y="-37.499999" height="449.999989" fill-opacity="1"/><path fill="#ffffff" d="M 231.191406 37.1875 C 228.964844 32.933594 230.027344 29.753906 234.269531 27.636719 C 238.519531 25.410156 241.699219 26.472656 243.929688 30.71875 C 246.046875 34.964844 244.984375 38.144531 240.734375 40.375 C 236.488281 42.492188 233.3125 41.429688 231.191406 37.1875 Z M 143.816406 337.808594 C 145.933594 342.050781 144.871094 345.234375 140.621094 347.460938 C 136.378906 349.578125 133.199219 348.515625 131.082031 344.273438 C 128.964844 340.03125 129.914062 336.84375 134.160156 334.726562 C 138.40625 332.496094 141.585938 333.558594 143.816406 337.808594 Z M 237.699219 65.882812 C 233.464844 57.398438 235.476562 51.03125 243.96875 46.6875 C 252.460938 42.339844 258.933594 44.472656 263.167969 52.957031 C 267.515625 61.449219 265.386719 67.808594 256.898438 72.15625 C 248.40625 76.5 242.042969 74.375 237.699219 65.882812 Z M 137.199219 309.105469 C 141.546875 317.597656 139.414062 324.070312 130.929688 328.304688 C 122.4375 332.648438 116.078125 330.523438 111.730469 322.03125 C 107.488281 313.65625 109.507812 307.179688 117.996094 302.945312 C 126.488281 298.597656 132.855469 300.609375 137.199219 309.105469 Z M 250.777344 107.328125 C 248.054688 101.933594 247.5625 96.4375 249.417969 90.953125 C 251.171875 85.355469 254.851562 81.199219 260.132812 78.46875 C 265.523438 75.742188 271.011719 75.367188 276.5 77.105469 C 282.09375 78.96875 286.257812 82.542969 288.984375 87.933594 C 291.707031 93.324219 292.203125 98.710938 290.339844 104.304688 C 288.597656 109.792969 284.917969 113.949219 279.636719 116.679688 C 274.242188 119.40625 268.746094 119.894531 263.15625 118.03125 C 257.667969 116.289062 253.503906 112.714844 250.777344 107.328125 Z M 124.226562 267.78125 C 126.953125 273.171875 127.335938 278.550781 125.585938 284.148438 C 123.730469 289.632812 120.160156 293.792969 114.765625 296.519531 C 109.375 299.246094 103.992188 299.742188 98.398438 297.878906 C 92.910156 296.132812 88.746094 292.566406 86.019531 287.171875 C 83.292969 281.78125 82.808594 276.285156 84.660156 270.804688 C 86.410156 265.207031 89.984375 261.039062 95.375 258.316406 C 100.765625 255.589844 106.257812 255.214844 111.742188 256.957031 C 117.335938 258.816406 121.390625 262.382812 124.226562 267.78125 Z M 270.328125 161.390625 C 266.683594 154.386719 266.179688 147.101562 268.585938 139.640625 C 270.996094 132.179688 275.753906 126.628906 282.863281 123.101562 L 308.222656 110.167969 L 334.085938 160.996094 C 344.898438 182.226562 346.628906 204.085938 339.179688 226.570312 C 331.734375 248.945312 317.5625 265.601562 296.566406 276.199219 C 275.34375 287.011719 253.601562 288.640625 231.117188 281.1875 C 208.632812 273.738281 192.085938 259.570312 181.480469 238.6875 L 142.582031 162.273438 C 139.050781 155.273438 133.5 150.511719 126.042969 147.996094 C 118.582031 145.585938 111.296875 146.203125 104.296875 149.738281 C 97.183594 153.375 92.421875 158.921875 90.011719 166.386719 C 87.605469 173.847656 88.109375 181.132812 91.753906 188.132812 L 104.683594 213.605469 C 108.210938 220.714844 108.832031 227.890625 106.417969 235.460938 C 104.011719 242.925781 99.253906 248.363281 92.140625 252.003906 L 66.667969 264.933594 L 40.8125 213.988281 C 29.996094 192.875 28.375 171.019531 35.824219 148.535156 C 43.277344 126.050781 57.441406 109.507812 78.324219 98.902344 C 99.550781 88.089844 121.402344 86.464844 143.890625 93.917969 C 166.378906 101.257812 182.917969 115.535156 193.523438 136.414062 L 232.3125 212.71875 C 235.953125 219.832031 241.503906 224.59375 248.964844 227 C 256.425781 229.40625 263.597656 228.898438 270.714844 225.261719 C 277.820312 221.730469 282.582031 216.179688 284.988281 208.71875 C 287.398438 201.257812 286.78125 193.96875 283.253906 186.859375 L 270.328125 161.390625 " fill-opacity="1" fill-rule="nonzero"/><path fill="#ffffff" d="M 225.769531 234.917969 C 199.28125 233.5 176.339844 219.996094 161.882812 200.140625 L 181.480469 238.6875 C 192.085938 259.570312 208.632812 273.738281 231.117188 281.1875 C 253.601562 288.640625 275.34375 287.011719 296.566406 276.199219 C 317.5625 265.601562 331.734375 248.945312 339.179688 226.570312 C 346.628906 204.085938 344.898438 182.226562 334.085938 160.996094 L 308.222656 110.167969 L 305.359375 111.578125 C 312.03125 124.546875 315.484375 139.355469 314.652344 154.9375 C 313.183594 182.429688 298.746094 206.105469 277.664062 220.496094 C 275.667969 222.398438 273.351562 223.945312 270.714844 225.261719 C 268.878906 226.164062 267.050781 226.960938 265.121094 227.527344 C 253.226562 232.921875 239.796875 235.664062 225.769531 234.917969 Z M 149.234375 140.191406 C 135.207031 139.441406 121.777344 142.1875 109.769531 147.574219 C 107.953125 148.148438 106.132812 148.828125 104.296875 149.738281 C 101.652344 151.15625 99.339844 152.707031 97.339844 154.609375 C 76.148438 168.882812 61.714844 192.558594 60.246094 220.050781 C 59.414062 235.632812 62.859375 250.550781 69.652344 263.417969 L 66.667969 264.933594 L 40.8125 213.988281 C 29.996094 192.875 28.375 171.019531 35.824219 148.535156 C 43.277344 126.050781 57.441406 109.507812 78.324219 98.902344 C 99.550781 88.089844 121.402344 86.464844 143.890625 93.917969 C 166.378906 101.257812 182.917969 115.535156 193.523438 136.414062 L 213.121094 174.96875 C 198.675781 155 175.722656 141.605469 149.234375 140.191406 " fill-opacity="1" fill-rule="evenodd"/></svg>