<svg xmlns="http://www.w3.org/2000/svg" xmlns:xlink="http://www.w3.org/1999/xlink" width="500" zoomAndPan="magnify" viewBox="0 0 375 374.999991" height="500" preserveAspectRatio="xMidYMid meet" version="1.0"><path fill="#ffffff" d="M 236.457031 19.082031 C 233.960938 14.320312 235.152344 10.757812 239.902344 8.386719 C 244.667969 5.890625 248.226562 7.082031 250.726562 11.839844 C 253.101562 16.597656 251.910156 20.15625 247.148438 22.65625 C 242.390625 25.03125 238.828125 23.839844 236.457031 19.082031 Z M 138.558594 355.914062 C 140.929688 360.667969 139.738281 364.234375 134.976562 366.726562 C 130.222656 369.101562 126.660156 367.914062 124.289062 363.15625 C 121.914062 358.40625 122.980469 354.832031 127.734375 352.460938 C 132.496094 349.964844 136.058594 351.152344 138.558594 355.914062 Z M 243.746094 51.238281 C 239 41.730469 241.257812 34.597656 250.773438 29.730469 C 260.285156 24.859375 267.539062 27.246094 272.28125 36.753906 C 277.152344 46.269531 274.769531 53.398438 265.257812 58.265625 C 255.742188 63.136719 248.613281 60.753906 243.746094 51.238281 Z M 131.144531 323.753906 C 136.015625 333.269531 133.625 340.519531 124.117188 345.261719 C 114.601562 350.132812 107.476562 347.75 102.605469 338.238281 C 97.855469 328.855469 100.117188 321.59375 109.625 316.851562 C 119.140625 311.980469 126.273438 314.234375 131.144531 323.753906 Z M 258.398438 97.671875 C 255.347656 91.628906 254.796875 85.472656 256.878906 79.328125 C 258.839844 73.054688 262.964844 68.398438 268.882812 65.339844 C 274.921875 62.28125 281.074219 61.863281 287.222656 63.8125 C 293.488281 65.902344 298.152344 69.902344 301.207031 75.945312 C 304.261719 81.984375 304.816406 88.019531 302.730469 94.285156 C 300.773438 100.433594 296.652344 105.089844 290.734375 108.152344 C 284.691406 111.207031 278.535156 111.753906 272.269531 109.667969 C 266.121094 107.714844 261.453125 103.710938 258.398438 97.671875 Z M 116.605469 277.453125 C 119.660156 283.492188 120.089844 289.519531 118.128906 295.792969 C 116.050781 301.933594 112.050781 306.597656 106.007812 309.652344 C 99.964844 312.707031 93.933594 313.261719 87.667969 311.175781 C 81.519531 309.21875 76.855469 305.222656 73.800781 299.179688 C 70.746094 293.136719 70.199219 286.980469 72.277344 280.839844 C 74.238281 274.566406 78.238281 269.898438 84.28125 266.84375 C 90.320312 263.792969 96.472656 263.371094 102.621094 265.324219 C 108.886719 267.40625 113.429688 271.402344 116.605469 277.453125 Z M 280.304688 158.25 C 276.222656 150.398438 275.65625 142.238281 278.355469 133.878906 C 281.050781 125.519531 286.386719 119.300781 294.351562 115.347656 L 322.765625 100.859375 L 351.742188 157.808594 C 363.855469 181.59375 365.796875 206.085938 357.449219 231.277344 C 349.109375 256.347656 333.226562 275.011719 309.707031 286.882812 C 285.921875 298.996094 261.5625 300.824219 236.371094 292.476562 C 211.179688 284.125 192.640625 268.253906 180.753906 244.855469 L 137.175781 159.238281 C 133.21875 151.394531 127 146.0625 118.644531 143.238281 C 110.285156 140.539062 102.117188 141.230469 94.277344 145.191406 C 86.304688 149.265625 80.96875 155.484375 78.273438 163.847656 C 75.574219 172.207031 76.140625 180.367188 80.226562 188.210938 L 94.707031 216.753906 C 98.660156 224.71875 99.355469 232.757812 96.652344 241.242188 C 93.957031 249.605469 88.628906 255.695312 80.65625 259.773438 L 52.117188 274.257812 L 23.148438 217.179688 C 11.027344 193.523438 9.210938 169.039062 17.558594 143.847656 C 25.90625 118.652344 41.777344 100.113281 65.175781 88.234375 C 88.960938 76.117188 113.445312 74.300781 138.640625 82.648438 C 163.839844 90.875 182.367188 106.871094 194.253906 130.265625 L 237.714844 215.757812 C 241.789062 223.730469 248.011719 229.0625 256.371094 231.757812 C 264.730469 234.457031 272.765625 233.886719 280.738281 229.808594 C 288.699219 225.855469 294.035156 219.636719 296.730469 211.277344 C 299.429688 202.917969 298.742188 194.75 294.789062 186.785156 L 280.304688 158.25 " fill-opacity="1" fill-rule="nonzero"/><path fill="#ffffff" d="M 230.382812 240.628906 C 200.699219 239.042969 174.996094 223.914062 158.796875 201.664062 L 180.753906 244.855469 C 192.640625 268.253906 211.179688 284.125 236.371094 292.476562 C 261.5625 300.824219 285.921875 298.996094 309.707031 286.882812 C 333.226562 275.011719 349.109375 256.347656 357.449219 231.277344 C 365.796875 206.085938 363.855469 181.59375 351.742188 157.808594 L 322.765625 100.859375 L 319.554688 102.433594 C 327.03125 116.96875 330.902344 133.558594 329.96875 151.019531 C 328.324219 181.824219 312.148438 208.351562 288.527344 224.472656 C 286.285156 226.605469 283.691406 228.339844 280.738281 229.808594 C 278.679688 230.824219 276.632812 231.714844 274.472656 232.351562 C 261.144531 238.394531 246.09375 241.46875 230.382812 240.628906 Z M 144.625 134.492188 C 128.910156 133.65625 113.863281 136.730469 100.410156 142.765625 C 98.375 143.410156 96.332031 144.171875 94.277344 145.191406 C 91.316406 146.78125 88.722656 148.519531 86.484375 150.652344 C 62.742188 166.644531 46.566406 193.167969 44.921875 223.972656 C 43.992188 241.433594 47.851562 258.148438 55.460938 272.5625 L 52.117188 274.257812 L 23.148438 217.179688 C 11.027344 193.523438 9.210938 169.039062 17.558594 143.847656 C 25.90625 118.652344 41.777344 100.113281 65.175781 88.234375 C 88.960938 76.117188 113.445312 74.300781 138.640625 82.648438 C 163.839844 90.875 182.367188 106.871094 194.253906 130.265625 L 216.210938 173.460938 C 200.019531 151.085938 174.308594 136.078125 144.625 134.492188 " fill-opacity="1" fill-rule="evenodd"/></svg>