<svg xmlns="http://www.w3.org/2000/svg" xmlns:xlink="http://www.w3.org/1999/xlink" width="500" zoomAndPan="magnify" viewBox="0 0 375 374.999991" height="500" preserveAspectRatio="xMidYMid meet" version="1.0"><path fill="#5271ff" d="M 328.207031 175.757812 C 327.207031 178.605469 325.425781 181.339844 322.953125 183.71875 C 314.976562 191.40625 259.753906 201.386719 238.996094 204.910156 C 234.113281 205.742188 231.132812 206.214844 231.132812 206.214844 L 215.484375 184.003906 C 215.484375 184.003906 297.160156 149.871094 314.375 154.453125 C 327.269531 157.890625 331.195312 167.28125 328.207031 175.757812 Z M 328.207031 175.757812 " fill-opacity="1" fill-rule="nonzero"/><path fill="#ffffff" d="M 328.207031 175.757812 C 327.207031 178.605469 325.425781 181.339844 322.953125 183.71875 C 314.976562 191.40625 259.753906 201.386719 238.996094 204.910156 C 238.648438 199.246094 238.128906 192.703125 238.128906 192.703125 C 238.128906 192.703125 304.90625 184.449219 319.789062 177.140625 C 322.269531 175.929688 325.179688 175.527344 328.207031 175.757812 Z M 328.207031 175.757812 " fill-opacity="1" fill-rule="nonzero"/><path fill="#2b2b2b" d="M 216.484375 184.296875 C 221.792969 191.441406 226.9375 198.421875 231.980469 205.613281 L 230.96875 205.1875 L 230.972656 205.1875 C 240.558594 202.617188 250.273438 200.855469 259.980469 199.0625 C 269.683594 197.238281 279.363281 195.296875 288.96875 193.097656 C 293.765625 191.992188 298.550781 190.820312 303.277344 189.515625 C 307.992188 188.207031 312.707031 186.789062 317.078125 184.921875 C 317.636719 184.703125 318.140625 184.429688 318.664062 184.179688 C 318.921875 184.050781 319.191406 183.925781 319.4375 183.792969 L 320.144531 183.367188 C 320.367188 183.222656 320.640625 183.09375 320.824219 182.941406 L 321.386719 182.492188 C 321.574219 182.371094 321.777344 182.15625 321.972656 181.953125 C 322.171875 181.75 322.382812 181.558594 322.5625 181.339844 C 324.089844 179.671875 325.34375 177.769531 326.160156 175.707031 C 326.996094 173.660156 327.351562 171.453125 327.195312 169.3125 C 327.035156 167.164062 326.269531 165.113281 325.078125 163.316406 C 323.855469 161.53125 322.175781 160.03125 320.25 158.855469 C 318.3125 157.691406 316.15625 156.820312 313.902344 156.199219 C 312.945312 155.945312 311.816406 155.835938 310.667969 155.824219 C 309.515625 155.8125 308.339844 155.855469 307.148438 155.972656 C 304.777344 156.175781 302.375 156.570312 299.988281 157.019531 C 295.203125 157.933594 290.4375 159.144531 285.699219 160.457031 C 280.960938 161.769531 276.25 163.214844 271.554688 164.71875 C 262.167969 167.738281 252.832031 170.972656 243.5625 174.375 C 238.925781 176.074219 234.300781 177.8125 229.6875 179.582031 L 222.769531 182.246094 L 219.320312 183.601562 L 217.597656 184.28125 L 216.09375 184.882812 L 215.988281 184.925781 C 216.003906 184.921875 215.878906 184.976562 216.007812 184.914062 C 216.238281 184.808594 216.445312 184.523438 216.484375 184.296875 Z M 214.488281 183.71875 C 214.558594 183.476562 214.808594 183.179688 215.066406 183.0625 L 215.191406 183.003906 L 215.296875 182.957031 L 215.511719 182.867188 L 215.941406 182.683594 L 216.792969 182.320312 L 218.507812 181.597656 L 221.933594 180.160156 L 228.804688 177.335938 C 233.394531 175.480469 238.003906 173.660156 242.621094 171.875 C 251.867188 168.316406 261.164062 164.871094 270.578125 161.726562 C 275.289062 160.160156 280.019531 158.65625 284.800781 157.273438 C 289.582031 155.898438 294.402344 154.617188 299.324219 153.621094 C 301.789062 153.132812 304.269531 152.695312 306.824219 152.445312 C 308.097656 152.3125 309.394531 152.246094 310.714844 152.246094 C 312.039062 152.253906 313.394531 152.339844 314.835938 152.703125 C 317.359375 153.367188 319.84375 154.328125 322.160156 155.6875 C 324.464844 157.0625 326.589844 158.890625 328.1875 161.179688 C 329.769531 163.472656 330.789062 166.207031 331.003906 169 C 331.222656 171.789062 330.757812 174.597656 329.738281 177.128906 C 328.738281 179.675781 327.222656 181.96875 325.425781 183.957031 C 325.210938 184.214844 324.964844 184.441406 324.734375 184.679688 C 324.5 184.921875 324.28125 185.160156 323.960938 185.398438 L 323.074219 186.109375 C 322.777344 186.34375 322.484375 186.484375 322.1875 186.675781 L 321.304688 187.207031 C 321.011719 187.367188 320.714844 187.503906 320.421875 187.652344 C 319.832031 187.9375 319.242188 188.253906 318.648438 188.488281 C 313.921875 190.527344 309.140625 191.964844 304.339844 193.324219 C 299.53125 194.667969 294.710938 195.863281 289.871094 196.996094 C 280.195312 199.25 270.480469 201.230469 260.746094 203.097656 C 251.011719 204.972656 241.246094 206.65625 231.296875 207.242188 L 230.65625 207.34375 L 230.28125 206.816406 C 224.898438 199.199219 219.609375 191.378906 214.488281 183.71875 Z M 214.488281 183.71875 " fill-opacity="1" fill-rule="nonzero"/><path fill="#5271ff" d="M 327.21875 183.597656 C 315.210938 196.164062 300.910156 189.066406 300.910156 189.066406 L 299.539062 187.847656 C 298.355469 186.789062 297.242188 185.6875 296.195312 184.539062 C 289.40625 177.078125 285.550781 167.785156 285.355469 158.1875 C 285.355469 158.1875 299.109375 146.257812 315.082031 147.660156 C 317.398438 147.863281 319.5625 148.5 321.515625 149.484375 C 332.996094 155.242188 337.476562 172.855469 327.21875 183.597656 Z M 327.21875 183.597656 " fill-opacity="1" fill-rule="nonzero"/><path fill="#ffffff" d="M 327.21875 183.597656 C 315.210938 196.164062 300.910156 189.066406 300.910156 189.066406 L 299.539062 187.847656 C 298.355469 186.789062 297.242188 185.6875 296.195312 184.539062 L 296.679688 183.507812 C 296.679688 183.507812 307.105469 185.78125 317.789062 179.699219 C 326.578125 174.699219 325.425781 159.027344 321.515625 149.484375 C 332.996094 155.242188 337.476562 172.855469 327.21875 183.597656 Z M 327.21875 183.597656 " fill-opacity="1" fill-rule="nonzero"/><path fill="#2b2b2b" d="M 286.035156 158.972656 C 286.75 157.367188 286.230469 158.53125 286.394531 158.175781 L 286.394531 158.234375 L 286.398438 158.300781 L 286.402344 158.4375 L 286.417969 158.707031 L 286.445312 159.25 C 286.464844 159.609375 286.46875 159.972656 286.503906 160.332031 C 286.585938 161.050781 286.636719 161.769531 286.742188 162.484375 C 286.953125 163.914062 287.21875 165.335938 287.589844 166.734375 C 288.316406 169.535156 289.363281 172.25 290.691406 174.824219 C 292.019531 177.398438 293.625 179.832031 295.457031 182.074219 C 296.375 183.199219 297.351562 184.273438 298.375 185.304688 C 299.402344 186.324219 300.480469 187.296875 301.601562 188.292969 L 301.371094 188.136719 C 302.3125 188.441406 303.386719 188.722656 304.421875 188.914062 C 305.464844 189.121094 306.519531 189.253906 307.5625 189.34375 C 309.664062 189.503906 311.753906 189.394531 313.785156 189.042969 C 315.828125 188.710938 317.753906 187.957031 319.617188 187.097656 L 320.960938 186.328125 L 321.632812 185.945312 L 322.261719 185.484375 L 323.515625 184.558594 C 323.730469 184.417969 323.925781 184.238281 324.109375 184.054688 L 324.683594 183.519531 C 327.875 180.800781 329.972656 177.109375 330.804688 173.070312 C 331.660156 169.042969 331.160156 164.734375 329.605469 160.886719 C 328.007812 157.070312 325.378906 153.609375 321.851562 151.496094 C 320.105469 150.4375 318.171875 149.671875 316.152344 149.335938 C 315.640625 149.28125 315.152344 149.164062 314.613281 149.152344 L 313.019531 149.078125 L 312.21875 149.035156 C 311.953125 149.03125 311.6875 149.058594 311.417969 149.066406 L 309.816406 149.140625 C 301.269531 149.828125 292.917969 153.722656 286.035156 158.972656 Z M 284.671875 157.40625 C 288.210938 154.382812 292.082031 151.972656 296.253906 150.011719 C 297.304688 149.539062 298.351562 149.058594 299.4375 148.667969 C 300.507812 148.230469 301.617188 147.898438 302.722656 147.554688 C 303.269531 147.367188 303.839844 147.242188 304.402344 147.105469 L 306.097656 146.707031 L 307.828125 146.441406 C 308.40625 146.363281 308.976562 146.234375 309.566406 146.21875 L 311.320312 146.101562 C 311.613281 146.089844 311.902344 146.054688 312.195312 146.054688 L 313.078125 146.078125 L 314.839844 146.132812 C 315.425781 146.136719 316.042969 146.257812 316.640625 146.316406 C 319.050781 146.671875 321.382812 147.535156 323.484375 148.757812 C 325.59375 149.976562 327.457031 151.585938 329.003906 153.4375 C 330.5625 155.285156 331.832031 157.363281 332.75 159.585938 C 334.574219 164.023438 335.195312 169 334.226562 173.761719 C 333.75 176.136719 332.898438 178.449219 331.683594 180.5625 C 330.480469 182.671875 328.886719 184.601562 327.101562 186.148438 L 326.449219 186.761719 C 326.238281 186.972656 326.015625 187.171875 325.769531 187.34375 L 324.324219 188.421875 L 323.601562 188.957031 L 322.816406 189.414062 L 321.246094 190.320312 C 320.703125 190.589844 320.136719 190.8125 319.582031 191.050781 L 318.742188 191.402344 C 318.460938 191.507812 318.164062 191.582031 317.871094 191.671875 C 317.292969 191.839844 316.710938 192.023438 316.125 192.175781 L 314.335938 192.484375 C 311.941406 192.808594 309.511719 192.761719 307.164062 192.34375 C 305.996094 192.128906 304.84375 191.84375 303.726562 191.453125 C 302.59375 191.078125 301.542969 190.617188 300.445312 189.992188 L 300.292969 189.90625 L 300.214844 189.835938 C 299.113281 188.859375 297.984375 187.839844 296.902344 186.765625 C 295.832031 185.6875 294.808594 184.566406 293.847656 183.386719 C 291.921875 181.03125 290.234375 178.476562 288.84375 175.769531 C 287.445312 173.066406 286.34375 170.203125 285.574219 167.25 C 285.1875 165.777344 284.902344 164.277344 284.683594 162.765625 C 284.570312 162.011719 284.515625 161.25 284.433594 160.492188 C 284.394531 160.113281 284.390625 159.730469 284.367188 159.351562 L 284.339844 158.777344 L 284.324219 158.492188 L 284.320312 158.347656 L 284.316406 158.277344 L 284.316406 158.214844 C 284.476562 157.855469 283.960938 159.019531 284.671875 157.40625 Z M 284.671875 157.40625 " fill-opacity="1" fill-rule="nonzero"/><path fill="#5271ff" d="M 163.621094 168.929688 L 147.316406 178.949219 L 140.472656 183.15625 C 140.472656 183.15625 99.507812 157.292969 77.8125 139.46875 C 71.109375 133.960938 66.246094 129.21875 64.992188 126.238281 C 59.679688 113.621094 66.804688 100.144531 84.433594 102.726562 C 102.058594 105.316406 163.621094 168.929688 163.621094 168.929688 Z M 163.621094 168.929688 " fill-opacity="1" fill-rule="nonzero"/><path fill="#ffffff" d="M 147.316406 178.949219 L 140.472656 183.15625 C 140.472656 183.15625 99.507812 157.292969 77.8125 139.46875 L 89.941406 137.230469 C 89.9375 137.230469 128.359375 166.550781 147.316406 178.949219 Z M 147.316406 178.949219 " fill-opacity="1" fill-rule="nonzero"/><path fill="#2b2b2b" d="M 164.648438 169.058594 C 156.917969 174.070312 148.972656 179.167969 141.019531 184.035156 L 140.464844 184.375 L 139.921875 184.027344 C 131.492188 178.8125 123.179688 173.4375 114.914062 167.976562 C 106.652344 162.511719 98.476562 156.910156 90.449219 151.082031 C 86.4375 148.164062 82.460938 145.183594 78.5625 142.085938 C 74.671875 138.972656 70.832031 135.792969 67.292969 132.101562 C 66.839844 131.65625 66.425781 131.140625 65.996094 130.652344 C 65.785156 130.402344 65.566406 130.167969 65.363281 129.90625 L 64.761719 129.085938 C 64.570312 128.800781 64.359375 128.5625 64.179688 128.238281 L 63.652344 127.261719 C 63.457031 126.929688 63.351562 126.625 63.230469 126.316406 C 63.117188 126.003906 62.976562 125.703125 62.882812 125.386719 C 62.015625 122.878906 61.527344 120.207031 61.605469 117.503906 C 61.65625 114.804688 62.320312 112.078125 63.605469 109.632812 C 64.878906 107.175781 66.859375 105.09375 69.179688 103.609375 C 71.523438 102.140625 74.164062 101.289062 76.808594 100.917969 C 79.460938 100.570312 82.113281 100.652344 84.691406 101.019531 C 86.148438 101.246094 87.425781 101.691406 88.644531 102.195312 C 89.859375 102.710938 91.03125 103.273438 92.148438 103.894531 C 94.402344 105.113281 96.519531 106.480469 98.601562 107.890625 C 106.875 113.578125 114.472656 120 121.90625 126.582031 C 129.328125 133.175781 136.574219 139.949219 143.617188 146.917969 C 147.144531 150.402344 150.671875 153.878906 154.117188 157.441406 L 159.277344 162.789062 L 161.835938 165.484375 L 163.105469 166.839844 L 163.734375 167.519531 L 164.050781 167.863281 L 164.207031 168.035156 L 164.289062 168.121094 L 164.378906 168.226562 C 164.570312 168.433594 164.679688 168.804688 164.648438 169.058594 Z M 162.589844 168.796875 C 162.53125 169.023438 162.613281 169.367188 162.777344 169.550781 C 162.871094 169.65625 162.777344 169.558594 162.792969 169.570312 L 162.707031 169.488281 L 162.542969 169.328125 L 162.210938 169.003906 L 160.21875 167.070312 L 157.558594 164.488281 L 152.21875 159.351562 C 148.636719 155.949219 145.089844 152.511719 141.484375 149.140625 C 134.261719 142.398438 127.027344 135.679688 119.609375 129.1875 C 115.902344 125.941406 112.136719 122.765625 108.324219 119.664062 C 104.511719 116.5625 100.636719 113.546875 96.621094 110.789062 C 94.609375 109.417969 92.570312 108.09375 90.476562 106.953125 C 89.433594 106.371094 88.371094 105.855469 87.308594 105.402344 C 86.253906 104.957031 85.171875 104.597656 84.179688 104.441406 C 81.863281 104.101562 79.527344 104.035156 77.269531 104.320312 C 75.019531 104.628906 72.859375 105.332031 70.996094 106.492188 C 69.15625 107.671875 67.609375 109.277344 66.589844 111.21875 C 65.574219 113.152344 65.011719 115.351562 64.964844 117.597656 C 64.890625 119.84375 65.292969 122.121094 66.035156 124.289062 C 66.117188 124.5625 66.238281 124.824219 66.335938 125.09375 C 66.4375 125.363281 66.539062 125.644531 66.667969 125.839844 L 67.019531 126.5 C 67.128906 126.722656 67.332031 126.957031 67.480469 127.179688 L 67.964844 127.863281 C 68.140625 128.089844 68.339844 128.3125 68.527344 128.535156 C 68.910156 128.980469 69.265625 129.4375 69.691406 129.863281 C 72.964844 133.347656 76.726562 136.542969 80.527344 139.640625 C 84.339844 142.738281 88.257812 145.730469 92.214844 148.671875 C 108.101562 160.367188 124.488281 171.464844 141.03125 182.269531 L 139.933594 182.261719 C 147.402344 177.652344 154.890625 173.269531 162.589844 168.796875 Z M 162.589844 168.796875 " fill-opacity="1" fill-rule="nonzero"/><path fill="#5271ff" d="M 109.621094 117.625 C 105.757812 126.144531 98.800781 133.027344 89.945312 137.230469 C 88.316406 138.007812 86.628906 138.683594 84.875 139.273438 L 83.136719 139.847656 C 83.136719 139.847656 67.195312 140.730469 61.128906 124.433594 C 58.019531 116.082031 60.753906 107.554688 66.210938 101.902344 C 71.398438 96.535156 79.046875 93.765625 86.46875 96.210938 C 101.691406 101.230469 109.621094 117.625 109.621094 117.625 Z M 109.621094 117.625 " fill-opacity="1" fill-rule="nonzero"/><path fill="#ffffff" d="M 92.363281 135.476562 L 89.945312 137.230469 C 88.316406 138.003906 86.628906 138.683594 84.875 139.269531 L 83.136719 139.847656 C 83.136719 139.847656 67.195312 140.726562 61.128906 124.429688 C 58.019531 116.078125 60.753906 107.554688 66.210938 101.902344 C 64.945312 109.066406 62.375 135.191406 92.363281 135.476562 Z M 92.363281 135.476562 " fill-opacity="1" fill-rule="nonzero"/><path fill="#2b2b2b" d="M 80.925781 96.363281 C 75.917969 96.363281 70.863281 98.570312 66.929688 102.65625 C 61.234375 108.574219 59.382812 116.78125 62.097656 124.074219 C 67.59375 138.828125 81.335938 138.863281 82.949219 138.816406 L 84.542969 138.285156 C 95.28125 134.6875 103.972656 127.183594 108.460938 117.644531 C 107.09375 115.0625 99.402344 101.566406 86.140625 97.191406 C 84.445312 96.636719 82.6875 96.363281 80.925781 96.363281 Z M 82.828125 140.894531 C 80.339844 140.894531 65.894531 140.210938 60.152344 124.796875 C 57.15625 116.75 59.179688 107.714844 65.4375 101.214844 C 71.3125 95.109375 79.496094 92.816406 86.792969 95.222656 C 102.261719 100.320312 110.222656 116.484375 110.554688 117.167969 L 110.769531 117.609375 L 110.566406 118.050781 C 105.902344 128.328125 96.65625 136.421875 85.207031 140.253906 L 83.335938 140.878906 L 83.195312 140.886719 C 83.179688 140.890625 83.050781 140.894531 82.828125 140.894531 Z M 82.828125 140.894531 " fill-opacity="1" fill-rule="nonzero"/><path fill="#5271ff" d="M 235.402344 366.535156 L 211.121094 370.996094 C 208.757812 371.433594 206.417969 371.265625 204.277344 370.605469 C 199.921875 369.269531 196.378906 365.894531 195.066406 361.367188 C 195.019531 361.207031 194.96875 361.050781 194.9375 360.890625 L 180.972656 305.046875 C 179.457031 298.96875 157.320312 278.675781 157.074219 269.257812 L 158.417969 269.007812 L 171.367188 266.632812 L 165.226562 242.039062 C 163.273438 234.214844 168.667969 226.375 176.875 225.109375 L 187.226562 223.519531 C 193.855469 222.5 200.253906 226.144531 202.546875 232.238281 L 244.320312 343.277344 L 246.183594 348.21875 C 249.191406 356.191406 244.039062 364.945312 235.402344 366.535156 Z M 235.402344 366.535156 " fill-opacity="1" fill-rule="nonzero"/><path fill="#ffffff" d="M 209.582031 346.140625 L 204.277344 370.605469 C 199.921875 369.269531 196.378906 365.894531 195.066406 361.367188 C 195.019531 361.207031 194.96875 361.050781 194.9375 360.890625 L 180.972656 305.046875 C 179.457031 298.96875 157.320312 278.675781 157.074219 269.257812 L 158.417969 269.007812 L 185.855469 283.046875 Z M 209.582031 346.140625 " fill-opacity="1" fill-rule="nonzero"/><path fill="#2b2b2b" d="M 248.195312 347.457031 C 248.914062 349.390625 249.265625 351.46875 249.191406 353.542969 C 249.121094 355.613281 248.625 357.664062 247.765625 359.542969 C 246.050781 363.3125 242.804688 366.304688 238.988281 367.839844 C 238.5 368.019531 238.023438 368.207031 237.53125 368.359375 L 236.035156 368.730469 C 235.105469 368.925781 234.273438 369.070312 233.382812 369.242188 L 228.136719 370.238281 L 217.640625 372.230469 L 212.390625 373.226562 C 211.953125 373.308594 211.542969 373.394531 210.996094 373.46875 C 210.484375 373.539062 209.96875 373.628906 209.445312 373.636719 C 208.925781 373.660156 208.410156 373.699219 207.886719 373.660156 C 207.367188 373.640625 206.84375 373.625 206.328125 373.542969 C 202.183594 373.046875 198.242188 370.917969 195.578125 367.632812 C 195.238281 367.230469 194.953125 366.78125 194.640625 366.355469 C 194.351562 365.914062 194.101562 365.449219 193.835938 364.992188 C 193.597656 364.515625 193.386719 364.035156 193.167969 363.550781 L 192.660156 362.09375 C 192.484375 361.472656 192.394531 361.085938 192.28125 360.652344 L 191.953125 359.359375 L 191.300781 356.769531 L 188.6875 346.410156 L 183.582031 325.671875 L 178.59375 305.246094 C 178.378906 304.691406 177.957031 303.96875 177.542969 303.289062 C 177.097656 302.597656 176.621094 301.894531 176.113281 301.203125 C 175.105469 299.804688 174.027344 298.417969 172.929688 297.035156 C 170.746094 294.257812 168.5 291.476562 166.308594 288.636719 C 164.140625 285.777344 161.976562 282.886719 160.074219 279.769531 C 159.121094 278.214844 158.214844 276.617188 157.449219 274.910156 C 156.695312 273.203125 156.0625 271.359375 156.039062 269.285156 L 155.960938 268.402344 L 156.886719 268.234375 L 171.179688 265.609375 L 171.179688 265.605469 L 170.359375 266.882812 L 164.078125 242.433594 C 163.496094 240.238281 163.445312 237.859375 163.941406 235.617188 C 164.433594 233.375 165.453125 231.253906 166.878906 229.457031 C 168.300781 227.65625 170.132812 226.179688 172.207031 225.179688 C 173.242188 224.6875 174.328125 224.285156 175.445312 224.023438 C 176.601562 223.75 177.609375 223.617188 178.652344 223.445312 L 184.882812 222.449219 C 185.9375 222.289062 186.90625 222.101562 188.097656 221.984375 C 188.671875 221.925781 189.25 221.925781 189.828125 221.917969 C 190.402344 221.957031 190.984375 221.953125 191.554688 222.054688 C 196.160156 222.601562 200.457031 225.375 202.847656 229.40625 C 203.125 229.921875 203.429688 230.421875 203.644531 230.96875 L 203.984375 231.769531 L 204.265625 232.507812 L 205.394531 235.453125 L 207.644531 241.347656 L 212.152344 253.136719 Z M 244.175781 348.96875 L 209.109375 254.289062 L 204.722656 242.453125 L 202.535156 236.539062 L 201.4375 233.578125 L 201.164062 232.839844 L 200.890625 232.183594 C 200.726562 231.742188 200.480469 231.347656 200.269531 230.933594 C 198.394531 227.695312 194.949219 225.386719 191.183594 224.902344 C 190.714844 224.8125 190.238281 224.816406 189.769531 224.773438 C 189.296875 224.78125 188.820312 224.769531 188.347656 224.816406 C 187.445312 224.890625 186.34375 225.078125 185.316406 225.226562 L 179.074219 226.152344 C 178.035156 226.304688 176.957031 226.449219 176.0625 226.652344 C 175.132812 226.855469 174.230469 227.179688 173.359375 227.578125 C 171.628906 228.378906 170.085938 229.589844 168.886719 231.074219 C 166.457031 234.03125 165.445312 238.101562 166.417969 241.851562 L 172.378906 266.378906 L 172.640625 267.460938 L 171.558594 267.652344 L 171.554688 267.652344 L 157.265625 270.28125 L 158.117188 269.230469 L 158.117188 269.234375 C 158.292969 270.730469 158.984375 272.277344 159.78125 273.761719 C 160.597656 275.246094 161.570312 276.683594 162.597656 278.085938 C 164.675781 280.878906 166.914062 283.597656 169.234375 286.261719 L 176.242188 294.324219 C 177.402344 295.691406 178.558594 297.074219 179.691406 298.527344 C 180.257812 299.25 180.8125 300.003906 181.355469 300.796875 C 181.886719 301.617188 182.433594 302.402344 182.890625 303.5 C 183.007812 303.777344 183.109375 304.113281 183.210938 304.421875 L 183.386719 305.085938 L 183.722656 306.378906 L 184.398438 308.964844 L 185.746094 314.136719 L 188.386719 324.496094 L 193.644531 345.210938 L 196.214844 355.585938 L 197.46875 360.621094 C 197.890625 362.097656 198.554688 363.34375 199.46875 364.488281 C 201.289062 366.753906 204.039062 368.273438 206.960938 368.667969 C 207.324219 368.738281 207.691406 368.746094 208.0625 368.765625 C 208.429688 368.804688 208.800781 368.773438 209.171875 368.761719 C 209.539062 368.765625 209.90625 368.699219 210.277344 368.65625 C 210.617188 368.625 211.078125 368.539062 211.515625 368.460938 L 216.777344 367.523438 L 227.292969 365.652344 L 232.554688 364.71875 C 233.417969 364.558594 234.339844 364.410156 235.152344 364.246094 L 236.253906 363.988281 C 236.609375 363.878906 236.960938 363.738281 237.316406 363.621094 C 240.101562 362.535156 242.492188 360.394531 243.765625 357.671875 C 245.050781 354.960938 245.199219 351.796875 244.175781 348.96875 Z M 244.175781 348.96875 " fill-opacity="1" fill-rule="nonzero"/><path fill="#5271ff" d="M 176.8125 255.859375 L 169.261719 275.871094 C 167.054688 277.625 163.050781 280.152344 158.40625 282.964844 C 147.488281 289.550781 133.007812 297.664062 129.832031 300.699219 L 89.996094 338.71875 L 88.191406 340.4375 C 87.382812 341.207031 86.503906 341.863281 85.566406 342.394531 C 80.441406 345.308594 73.746094 344.609375 69.113281 340.328125 L 50.96875 323.582031 C 44.523438 317.625 44.84375 307.480469 51.648438 302.335938 L 54.1875 300.417969 L 150.503906 227.621094 C 155.699219 223.695312 163.058594 224.035156 168.113281 228.429688 L 176.015625 235.316406 C 182.277344 240.773438 182.644531 250.285156 176.8125 255.859375 Z M 176.8125 255.859375 " fill-opacity="1" fill-rule="nonzero"/><path fill="#f6f4f1" d="M 110.984375 266.398438 L 64.902344 299.140625 L 60.035156 298.375 L 57.4375 297.957031 L 54.828125 297.546875 L 106.808594 258.550781 L 108.402344 261.542969 Z M 110.984375 266.398438 " fill-opacity="1" fill-rule="nonzero"/><path fill="#ffffff" d="M 160.121094 278.945312 C 160.085938 279.171875 159.449219 280.636719 158.402344 282.964844 C 147.488281 289.550781 133.007812 297.664062 129.828125 300.699219 L 89.992188 338.71875 L 88.191406 340.4375 C 87.378906 341.207031 86.5 341.863281 85.566406 342.394531 L 87.3125 313.507812 L 136.183594 275.949219 C 136.1875 275.945312 160.371094 277.453125 160.121094 278.945312 Z M 160.121094 278.945312 " fill-opacity="1" fill-rule="nonzero"/><path fill="#2b2b2b" d="M 175.910156 255.300781 L 175.84375 255.488281 L 168.425781 275.261719 C 168.085938 275.460938 167.757812 275.65625 167.441406 275.863281 L 166.964844 276.183594 L 166.390625 276.535156 C 165.628906 277.011719 164.871094 277.496094 164.089844 277.960938 C 162.550781 278.902344 160.972656 279.800781 159.40625 280.710938 C 159.398438 280.710938 159.398438 280.714844 159.394531 280.714844 L 149.863281 286.089844 C 146.679688 287.867188 143.507812 289.691406 140.328125 291.523438 C 138.742188 292.429688 137.164062 293.375 135.589844 294.335938 C 134.019531 295.308594 132.453125 296.277344 130.882812 297.363281 L 129.707031 298.203125 L 128.492188 299.203125 L 126.492188 301.078125 L 122.515625 304.855469 L 114.570312 312.40625 L 98.734375 327.558594 L 90.816406 335.136719 L 86.855469 338.921875 C 86.496094 339.269531 86.113281 339.597656 85.71875 339.886719 C 84.867188 340.523438 83.941406 341.039062 82.9375 341.402344 C 80.019531 342.503906 76.65625 342.359375 73.785156 341.054688 C 73.417969 340.910156 73.078125 340.71875 72.742188 340.523438 C 72.386719 340.34375 72.066406 340.109375 71.742188 339.886719 C 71.40625 339.679688 71.113281 339.417969 70.808594 339.160156 C 70.515625 338.933594 70.179688 338.613281 69.839844 338.300781 L 57.746094 327.167969 L 53.71875 323.453125 C 52.289062 322.160156 51.191406 321.140625 50.316406 319.804688 C 48.527344 317.195312 47.898438 313.847656 48.511719 310.78125 C 48.816406 309.242188 49.421875 307.777344 50.3125 306.488281 C 50.554688 306.183594 50.75 305.84375 51.019531 305.5625 C 51.289062 305.285156 51.546875 304.988281 51.820312 304.710938 L 52.714844 303.949219 C 53.039062 303.6875 53.433594 303.402344 53.789062 303.128906 L 60.035156 298.375 L 108.402344 261.546875 L 123.542969 250.015625 L 140.960938 236.710938 L 149.667969 230.050781 L 150.753906 229.214844 L 151.292969 228.804688 L 151.804688 228.441406 C 152.132812 228.199219 152.484375 227.992188 152.84375 227.792969 C 153.191406 227.578125 153.574219 227.429688 153.941406 227.253906 C 155.445312 226.585938 157.089844 226.277344 158.730469 226.261719 C 160.382812 226.261719 162.042969 226.554688 163.578125 227.183594 C 164.339844 227.5 165.089844 227.867188 165.78125 228.324219 C 166.132812 228.546875 166.480469 228.78125 166.800781 229.050781 L 167.292969 229.441406 L 167.8125 229.882812 L 171.964844 233.460938 L 174.046875 235.246094 L 175.082031 236.136719 C 175.414062 236.429688 175.691406 236.722656 176.003906 237.011719 C 178.359375 239.386719 179.78125 242.675781 179.8125 246.039062 L 179.8125 246.265625 C 179.8125 249.546875 178.46875 252.808594 176.09375 255.105469 Z M 177.753906 235.300781 C 177.402344 234.960938 177.039062 234.585938 176.695312 234.277344 L 175.667969 233.371094 L 173.609375 231.5625 L 169.496094 227.933594 L 168.984375 227.484375 L 168.410156 227.011719 C 168.035156 226.6875 167.625 226.40625 167.203125 226.132812 C 166.378906 225.574219 165.484375 225.121094 164.570312 224.726562 C 162.734375 223.953125 160.734375 223.5625 158.734375 223.542969 C 156.730469 223.53125 154.710938 223.890625 152.855469 224.679688 C 152.394531 224.886719 151.925781 225.070312 151.488281 225.332031 C 151.046875 225.566406 150.609375 225.816406 150.199219 226.113281 L 149.585938 226.535156 L 149.03125 226.953125 L 147.9375 227.769531 L 139.148438 234.320312 L 121.597656 247.449219 L 106.804688 258.550781 L 54.828125 297.546875 L 51.472656 300.0625 C 51.097656 300.34375 50.753906 300.59375 50.367188 300.90625 L 49.175781 301.917969 C 48.808594 302.285156 48.453125 302.671875 48.101562 303.054688 C 47.742188 303.445312 47.464844 303.882812 47.148438 304.300781 C 45.949219 306.019531 45.125 307.984375 44.722656 310.03125 C 43.898438 314.109375 44.738281 318.507812 47.0625 321.957031 C 47.320312 322.40625 47.679688 322.789062 47.984375 323.203125 C 48.289062 323.625 48.652344 324 49.011719 324.367188 L 49.550781 324.921875 C 49.738281 325.105469 49.890625 325.238281 50.0625 325.398438 L 51.066406 326.335938 L 55.089844 330.050781 L 63.128906 337.492188 L 67.152344 341.21875 C 67.484375 341.527344 67.804688 341.828125 68.226562 342.175781 C 68.621094 342.507812 69.015625 342.851562 69.453125 343.128906 C 69.875 343.429688 70.304688 343.734375 70.761719 343.976562 C 71.210938 344.230469 71.667969 344.488281 72.144531 344.683594 C 75.933594 346.414062 80.398438 346.628906 84.339844 345.160156 C 86.308594 344.441406 88.136719 343.277344 89.632812 341.835938 L 93.601562 338.0625 L 101.539062 330.507812 L 117.417969 315.394531 L 125.328125 307.8125 L 129.28125 304.015625 L 131.246094 302.117188 L 132.132812 301.363281 L 133.179688 300.59375 C 136.03125 298.542969 139.175781 296.644531 142.246094 294.710938 L 151.566406 288.972656 C 154.675781 287.050781 157.785156 285.121094 160.851562 283.105469 C 162.390625 282.101562 163.921875 281.089844 165.4375 280.035156 C 166.199219 279.527344 166.957031 278.96875 167.695312 278.417969 L 168.257812 278.007812 L 168.878906 277.507812 C 169.292969 277.167969 169.703125 276.820312 170.097656 276.476562 L 177.695312 256.433594 C 180.472656 253.753906 182.085938 249.898438 182.074219 246.027344 C 182.105469 242.078125 180.511719 238.140625 177.753906 235.300781 Z M 177.753906 235.300781 " fill-opacity="1" fill-rule="nonzero"/><path fill="#ffffff" d="M 99.25 251.289062 L 97.742188 258.050781 C 97.089844 260.976562 98.734375 263.921875 101.566406 264.898438 C 112.351562 268.621094 138.660156 277.410156 159.808594 282.128906 C 181.019531 286.855469 209.683594 290.867188 221.421875 292.417969 C 224.449219 292.820312 227.277344 290.84375 227.9375 287.863281 L 230.738281 275.3125 C 231.464844 272.042969 229.324219 268.824219 226.027344 268.230469 L 106.035156 246.777344 C 102.929688 246.21875 99.9375 248.210938 99.25 251.289062 Z M 99.25 251.289062 " fill-opacity="1" fill-rule="nonzero"/><path fill="#5271ff" d="M 99.566406 248.109375 L 98.058594 254.871094 C 97.40625 257.796875 99.046875 260.742188 101.882812 261.71875 C 112.667969 265.441406 138.976562 274.230469 160.125 278.945312 C 181.332031 283.679688 210 287.683594 221.738281 289.242188 C 224.761719 289.640625 227.589844 287.664062 228.253906 284.679688 L 231.054688 272.128906 C 231.78125 268.859375 229.640625 265.640625 226.34375 265.050781 L 106.351562 243.597656 C 103.246094 243.039062 100.253906 245.03125 99.566406 248.109375 Z M 99.566406 248.109375 " fill-opacity="1" fill-rule="nonzero"/><path fill="#2b2b2b" d="M 104.988281 247.71875 C 102.753906 247.71875 100.769531 249.257812 100.265625 251.515625 L 98.757812 258.273438 C 98.21875 260.6875 99.574219 263.109375 101.90625 263.914062 C 112.328125 267.511719 138.847656 276.382812 160.035156 281.109375 C 181.28125 285.851562 210.140625 289.875 221.558594 291.386719 C 224.0625 291.714844 226.375 290.105469 226.925781 287.636719 L 229.722656 275.082031 C 230.015625 273.78125 229.769531 272.449219 229.027344 271.339844 C 228.289062 270.226562 227.15625 269.488281 225.839844 269.253906 L 105.851562 247.800781 C 105.5625 247.742188 105.273438 247.71875 104.988281 247.71875 Z M 222.21875 293.507812 C 221.910156 293.507812 221.597656 293.488281 221.285156 293.445312 C 209.839844 291.933594 180.910156 287.894531 159.582031 283.136719 C 138.292969 278.386719 111.679688 269.488281 101.226562 265.878906 C 97.894531 264.726562 95.960938 261.265625 96.730469 257.820312 L 98.238281 251.058594 C 99.046875 247.425781 102.550781 245.089844 106.21875 245.746094 L 226.210938 267.199219 C 228.085938 267.53125 229.703125 268.59375 230.761719 270.179688 C 231.816406 271.769531 232.171875 273.667969 231.753906 275.527344 L 228.957031 288.082031 C 228.234375 291.308594 225.425781 293.507812 222.21875 293.507812 Z M 222.21875 293.507812 " fill-opacity="1" fill-rule="nonzero"/><path fill="#5271ff" d="M 241.316406 268.1875 C 238.664062 279.304688 225.59375 282.929688 210.945312 283.277344 C 189.261719 283.789062 164.109375 277.152344 164.109375 277.152344 C 164.109375 277.152344 138.511719 272.472656 119.113281 262.792969 C 111.40625 258.949219 104.667969 254.316406 100.898438 248.871094 C 98.261719 245.054688 97.070312 240.84375 98.03125 236.226562 C 102.4375 214.96875 135.964844 164.15625 151.46875 141.46875 C 156.230469 134.5 159.289062 130.1875 159.289062 130.1875 L 194.601562 140.4375 L 230.933594 146.164062 C 230.933594 146.164062 247.910156 240.59375 241.316406 268.1875 Z M 241.316406 268.1875 " fill-opacity="1" fill-rule="nonzero"/><path fill="#ffffff" d="M 168.9375 160.707031 C 168.9375 160.707031 163.300781 165.382812 158.394531 173.394531 C 153.5 181.40625 132.960938 199.773438 125.082031 203.277344 C 117.214844 206.78125 99.886719 239.679688 101.351562 246.679688 C 101.558594 247.671875 101.371094 248.375 100.898438 248.867188 C 98.261719 245.050781 97.070312 240.839844 98.03125 236.222656 C 102.4375 214.96875 135.964844 164.152344 151.46875 141.464844 Z M 168.9375 160.707031 " fill-opacity="1" fill-rule="nonzero"/><path fill="#2b2b2b" d="M 239.0625 267.648438 C 240.046875 262.960938 240.359375 257.90625 240.53125 252.882812 C 240.675781 247.839844 240.585938 242.757812 240.386719 237.675781 C 239.960938 227.503906 239.113281 217.324219 238.082031 207.160156 C 237.039062 196.992188 235.804688 186.839844 234.433594 176.703125 C 233.0625 166.570312 231.5625 156.4375 229.910156 146.351562 L 230.773438 147.195312 L 194.445312 141.464844 L 194.378906 141.457031 L 194.316406 141.4375 L 159.003906 131.183594 L 160.140625 130.789062 L 160.136719 130.789062 C 150.316406 144.910156 140.804688 159.273438 131.652344 173.839844 C 127.089844 181.132812 122.625 188.484375 118.335938 195.929688 C 114.078125 203.386719 109.917969 210.910156 106.273438 218.644531 C 104.453125 222.503906 102.722656 226.417969 101.34375 230.40625 C 100.972656 231.394531 100.703125 232.40625 100.378906 233.40625 C 100.066406 234.402344 99.875 235.410156 99.613281 236.414062 C 99.25 238.339844 99.226562 240.273438 99.625 242.160156 C 100.476562 245.933594 102.933594 249.304688 105.929688 252.082031 C 108.945312 254.878906 112.453125 257.222656 116.140625 259.257812 C 119.824219 261.304688 123.699219 263.050781 127.625 264.671875 C 131.570312 266.261719 135.597656 267.664062 139.664062 268.964844 C 143.730469 270.257812 147.84375 271.410156 151.988281 272.460938 C 156.121094 273.503906 160.320312 274.460938 164.464844 275.238281 L 164.527344 275.25 L 164.609375 275.269531 C 167.917969 276.097656 171.339844 276.828125 174.730469 277.492188 C 178.128906 278.15625 181.546875 278.75 184.96875 279.25 C 191.8125 280.273438 198.703125 280.957031 205.570312 281.113281 C 209 281.183594 212.429688 281.144531 215.8125 280.835938 C 219.191406 280.539062 222.535156 280.027344 225.71875 279.132812 C 228.882812 278.226562 231.890625 276.910156 234.304688 275.011719 C 236.738281 273.132812 238.335938 270.554688 239.0625 267.648438 Z M 243.570312 268.722656 C 242.617188 272.597656 240.25 276.226562 237.113281 278.578125 C 233.996094 280.972656 230.449219 282.433594 226.902344 283.421875 C 223.34375 284.378906 219.746094 284.894531 216.164062 285.179688 C 212.582031 285.46875 209.011719 285.476562 205.460938 285.378906 C 198.351562 285.152344 191.316406 284.386719 184.351562 283.28125 C 180.867188 282.742188 177.402344 282.109375 173.949219 281.402344 C 170.488281 280.691406 167.074219 279.9375 163.613281 279.035156 L 163.761719 279.070312 C 159.445312 278.21875 155.25 277.21875 151.039062 276.117188 C 146.839844 275.015625 142.667969 273.8125 138.535156 272.453125 C 134.40625 271.097656 130.308594 269.628906 126.273438 267.960938 C 122.253906 266.261719 118.277344 264.425781 114.449219 262.253906 C 110.621094 260.09375 106.921875 257.597656 103.640625 254.503906 C 102.027344 252.933594 100.46875 251.253906 99.234375 249.285156 C 98 247.332031 96.949219 245.183594 96.476562 242.835938 C 96 240.5 96.054688 238.058594 96.519531 235.757812 C 96.808594 234.679688 97.039062 233.570312 97.375 232.515625 C 97.722656 231.46875 98.023438 230.398438 98.414062 229.375 C 99.890625 225.230469 101.6875 221.265625 103.574219 217.355469 C 107.347656 209.535156 111.597656 202.003906 115.945312 194.539062 C 120.324219 187.09375 124.871094 179.757812 129.511719 172.484375 C 138.820312 157.953125 148.464844 143.664062 158.441406 129.582031 L 158.871094 128.976562 L 159.582031 129.183594 L 194.894531 139.4375 L 194.769531 139.40625 L 231.097656 145.132812 L 231.828125 145.25 L 231.957031 145.976562 C 233.851562 156.0625 235.578125 166.164062 237.1875 176.292969 C 238.792969 186.421875 240.261719 196.574219 241.546875 206.761719 C 242.816406 216.949219 243.902344 227.167969 244.574219 237.453125 C 244.886719 242.597656 245.101562 247.761719 245.070312 252.957031 C 245.027344 258.164062 244.792969 263.394531 243.570312 268.722656 Z M 243.570312 268.722656 " fill-opacity="1" fill-rule="nonzero"/><path fill="#004aad" d="M 215.457031 173.785156 C 215.457031 173.785156 216.925781 218.546875 241.1875 229.5 L 241.191406 229.5 C 239.351562 207.121094 235.726562 182.238281 233.191406 166.335938 C 226.699219 168.730469 215.457031 173.785156 215.457031 173.785156 Z M 215.457031 173.785156 " fill-opacity="1" fill-rule="nonzero"/><path fill="#2b2b2b" d="M 216.53125 174.445312 C 216.84375 179.96875 219.695312 216.800781 240 227.753906 C 238.1875 206.667969 234.90625 183.8125 232.363281 167.761719 C 226.835938 169.875 218.839844 173.414062 216.53125 174.445312 Z M 242.347656 230.859375 L 240.757812 230.449219 C 216.191406 219.355469 214.480469 175.675781 214.417969 173.820312 L 214.394531 173.125 L 215.027344 172.839844 C 215.140625 172.789062 226.375 167.738281 232.828125 165.363281 L 234.015625 164.925781 L 234.214844 166.171875 C 236.859375 182.765625 240.398438 207.207031 242.222656 229.414062 Z M 242.347656 230.859375 " fill-opacity="1" fill-rule="nonzero"/><path fill="#004aad" d="M 162.917969 158.609375 C 162.917969 158.609375 142.566406 198.5 115.953125 198.109375 L 115.945312 198.105469 C 127.125 178.628906 140.980469 157.644531 150.03125 144.332031 C 154.890625 149.253906 162.917969 158.609375 162.917969 158.609375 Z M 162.917969 158.609375 " fill-opacity="1" fill-rule="nonzero"/><path fill="#2b2b2b" d="M 150.175781 145.96875 C 141.050781 159.421875 128.363281 178.714844 117.765625 197.03125 C 140.796875 195.746094 159.035156 163.613281 161.667969 158.746094 C 160.011719 156.832031 154.277344 150.230469 150.175781 145.96875 Z M 116.351562 199.148438 C 116.210938 199.148438 116.074219 199.148438 115.9375 199.144531 L 115.75 199.125 L 114.332031 198.84375 L 115.042969 197.589844 C 126.132812 178.265625 139.722656 157.644531 149.167969 143.75 L 149.878906 142.703125 L 150.769531 143.601562 C 155.601562 148.496094 163.625 157.839844 163.707031 157.933594 L 164.160156 158.460938 L 163.839844 159.082031 C 163.003906 160.722656 143.089844 199.148438 116.351562 199.148438 Z M 116.351562 199.148438 " fill-opacity="1" fill-rule="nonzero"/><path fill="#5271ff" d="M 222.632812 230.878906 L 210.949219 283.273438 C 189.261719 283.785156 164.109375 277.152344 164.109375 277.152344 C 164.109375 277.152344 143.089844 273.308594 124.71875 265.386719 C 122.816406 264.5625 120.9375 263.695312 119.117188 262.789062 L 130.800781 210.390625 C 131.894531 205.484375 136.753906 202.40625 141.644531 203.5 L 152.171875 205.847656 L 215.738281 220.027344 C 220.644531 221.121094 223.726562 225.972656 222.632812 230.878906 Z M 222.632812 230.878906 " fill-opacity="1" fill-rule="nonzero"/><path fill="#ffffff" d="M 156.222656 208.085938 C 156.222656 208.085938 139.054688 204.78125 136.183594 211.457031 C 133.78125 217.054688 126.898438 253.640625 124.714844 265.386719 C 122.8125 264.5625 120.933594 263.695312 119.113281 262.789062 L 130.796875 210.390625 C 131.890625 205.484375 136.753906 202.40625 141.644531 203.5 L 152.167969 205.847656 Z M 156.222656 208.085938 " fill-opacity="1" fill-rule="nonzero"/><path fill="#2b2b2b" d="M 221.359375 230.589844 C 221.640625 229.210938 221.605469 227.753906 221.132812 226.417969 C 220.699219 225.074219 219.855469 223.875 218.789062 222.960938 C 218.25 222.503906 217.648438 222.132812 217.011719 221.828125 C 216.683594 221.703125 216.363281 221.546875 216.023438 221.460938 L 215.511719 221.316406 L 214.917969 221.179688 L 210.09375 220.105469 L 190.800781 215.800781 L 152.210938 207.195312 L 142.566406 205.042969 L 141.363281 204.773438 C 141.011719 204.730469 140.667969 204.625 140.3125 204.621094 C 139.609375 204.539062 138.902344 204.621094 138.210938 204.726562 C 137.515625 204.867188 136.847656 205.09375 136.210938 205.402344 C 135.589844 205.738281 134.980469 206.105469 134.464844 206.59375 C 133.945312 207.070312 133.46875 207.601562 133.105469 208.203125 C 132.714844 208.792969 132.429688 209.445312 132.226562 210.121094 L 132.082031 210.632812 L 131.945312 211.226562 L 131.675781 212.429688 L 131.140625 214.84375 L 128.980469 224.488281 L 124.582031 243.761719 L 122.378906 253.398438 L 120.121094 263.023438 L 119.570312 261.867188 L 119.574219 261.867188 C 123.085938 263.574219 126.671875 265.148438 130.335938 266.546875 C 134.003906 267.929688 137.707031 269.230469 141.464844 270.375 C 145.21875 271.527344 149 272.59375 152.808594 273.558594 C 156.613281 274.515625 160.460938 275.398438 164.292969 276.140625 L 164.332031 276.144531 L 164.371094 276.15625 C 168.152344 277.117188 172.007812 277.949219 175.859375 278.699219 C 179.71875 279.445312 183.59375 280.089844 187.484375 280.640625 C 191.371094 281.199219 195.28125 281.59375 199.1875 281.902344 C 203.09375 282.195312 207.011719 282.292969 210.917969 282.242188 L 209.925781 283.054688 L 212.742188 269.929688 L 215.613281 256.820312 Z M 223.90625 231.160156 L 217.960938 257.335938 L 214.988281 270.425781 L 211.960938 283.5 L 211.773438 284.3125 L 210.96875 284.3125 C 206.980469 284.367188 203 284.261719 199.039062 283.96875 C 195.078125 283.65625 191.128906 283.253906 187.203125 282.691406 C 183.273438 282.132812 179.363281 281.480469 175.46875 280.730469 C 171.574219 279.972656 167.714844 279.140625 163.84375 278.15625 L 163.921875 278.175781 C 160 277.417969 156.152344 276.53125 152.304688 275.5625 C 148.464844 274.589844 144.644531 273.519531 140.851562 272.351562 C 137.058594 271.191406 133.3125 269.882812 129.59375 268.480469 C 125.882812 267.0625 122.234375 265.460938 118.648438 263.71875 L 118.644531 263.71875 L 117.921875 263.382812 L 118.09375 262.5625 L 120.140625 252.890625 L 122.238281 243.234375 L 126.449219 223.917969 L 128.59375 214.269531 L 129.132812 211.859375 L 129.402344 210.652344 L 129.539062 210.042969 L 129.726562 209.363281 C 129.996094 208.460938 130.382812 207.589844 130.898438 206.800781 C 131.390625 205.996094 132.023438 205.285156 132.71875 204.652344 C 133.40625 204.007812 134.214844 203.503906 135.042969 203.066406 C 135.890625 202.652344 136.785156 202.351562 137.710938 202.164062 C 138.636719 202.011719 139.589844 201.917969 140.527344 202.023438 C 141 202.035156 141.457031 202.160156 141.921875 202.226562 L 143.128906 202.496094 L 152.777344 204.648438 L 191.363281 213.257812 L 210.65625 217.558594 L 215.480469 218.636719 L 216.089844 218.773438 L 216.769531 218.960938 C 217.222656 219.082031 217.660156 219.277344 218.09375 219.453125 C 218.945312 219.855469 219.75 220.359375 220.472656 220.964844 C 221.898438 222.191406 223.015625 223.792969 223.601562 225.585938 C 224.230469 227.367188 224.289062 229.320312 223.90625 231.160156 Z M 223.90625 231.160156 " fill-opacity="1" fill-rule="nonzero"/><path fill="#2b2b2b" d="M 112.96875 315.59375 C 103.003906 286.410156 80.839844 282.941406 79.902344 282.8125 L 80.464844 278.722656 C 81.507812 278.863281 106.050781 282.566406 116.875 314.257812 Z M 112.96875 315.59375 " fill-opacity="1" fill-rule="nonzero"/><path fill="#2b2b2b" d="M 187.378906 324.949219 L 184.449219 322.042969 C 185.183594 321.296875 202.878906 303.878906 234.722656 314.242188 L 233.445312 318.167969 C 204.121094 308.628906 188.046875 324.273438 187.378906 324.949219 Z M 187.378906 324.949219 " fill-opacity="1" fill-rule="nonzero"/><path fill="#5271ff" d="M 89.363281 342.613281 C 82.148438 350.425781 70.632812 346.375 59.003906 335.644531 C 57.511719 334.265625 56.085938 332.847656 54.773438 331.398438 C 48.71875 324.8125 44.585938 317.6875 44.410156 311.660156 C 44.320312 308.695312 45.191406 305.996094 47.265625 303.75 C 51.210938 299.46875 57.570312 298.246094 64.425781 299.761719 C 70.105469 301.023438 76.109375 304.164062 81.371094 309.027344 C 82.914062 310.453125 84.3125 311.949219 85.566406 313.503906 C 93.761719 323.628906 95.617188 335.839844 89.363281 342.613281 Z M 89.363281 342.613281 " fill-opacity="1" fill-rule="nonzero"/><path fill="#f6f4f1" d="M 64.425781 299.765625 C 63.640625 299.945312 48.917969 303.386719 44.410156 311.660156 C 44.320312 308.695312 45.191406 305.996094 47.265625 303.75 C 51.210938 299.472656 57.570312 298.246094 64.425781 299.765625 Z M 64.425781 299.765625 " fill-opacity="1" fill-rule="nonzero"/><path fill="#ffffff" d="M 89.363281 342.613281 C 82.148438 350.425781 70.632812 346.375 59.003906 335.644531 C 57.511719 334.265625 56.085938 332.847656 54.773438 331.398438 C 60.90625 334.929688 67.773438 335.632812 71.734375 336.816406 C 83.542969 340.34375 85.570312 313.503906 85.570312 313.503906 C 93.761719 323.628906 95.617188 335.839844 89.363281 342.613281 Z M 89.363281 342.613281 " fill-opacity="1" fill-rule="nonzero"/><path fill="#2b2b2b" d="M 87.878906 341.242188 C 89.683594 339.355469 90.816406 336.824219 91.140625 334.070312 C 91.492188 331.320312 91.132812 328.421875 90.351562 325.628906 C 88.75 320.019531 85.425781 314.835938 81.199219 310.617188 C 76.980469 306.378906 71.792969 302.980469 66.0625 301.28125 C 63.210938 300.433594 60.222656 300.015625 57.308594 300.269531 C 54.402344 300.511719 51.570312 301.488281 49.378906 303.289062 C 48.292969 304.199219 47.363281 305.273438 46.71875 306.476562 C 46.054688 307.679688 45.75 309.046875 45.660156 310.425781 C 45.515625 313.214844 46.386719 316.074219 47.632812 318.71875 C 48.894531 321.378906 50.570312 323.875 52.433594 326.21875 C 54.308594 328.554688 56.371094 330.761719 58.570312 332.820312 C 60.765625 334.886719 63.078125 336.824219 65.492188 338.566406 C 67.90625 340.304688 70.449219 341.847656 73.097656 342.949219 C 75.742188 344.039062 78.507812 344.667969 81.097656 344.503906 C 83.671875 344.300781 86.011719 343.164062 87.878906 341.242188 Z M 90.847656 343.984375 L 89.898438 344.90625 C 89.578125 345.214844 89.28125 345.539062 88.898438 345.789062 C 88.171875 346.316406 87.460938 346.871094 86.628906 347.25 C 86.21875 347.441406 85.832031 347.699219 85.394531 347.832031 L 84.101562 348.269531 C 83.671875 348.433594 83.222656 348.472656 82.777344 348.5625 C 82.335938 348.625 81.886719 348.738281 81.441406 348.753906 C 77.847656 349.007812 74.46875 348.046875 71.480469 346.699219 C 68.46875 345.335938 65.761719 343.558594 63.230469 341.625 C 60.703125 339.671875 58.328125 337.578125 56.132812 335.316406 C 51.738281 330.800781 47.75 325.769531 45.117188 319.863281 C 43.855469 316.914062 42.933594 313.652344 43.21875 310.253906 C 43.375 308.566406 43.847656 306.875 44.691406 305.378906 C 45.535156 303.875 46.691406 302.605469 47.988281 301.566406 C 50.632812 299.496094 53.90625 298.414062 57.132812 298.171875 C 60.375 297.925781 63.597656 298.390625 66.65625 299.269531 C 72.78125 301.082031 78.300781 304.496094 82.953125 308.800781 C 85.285156 310.957031 87.367188 313.386719 89.183594 316.027344 C 90.992188 318.667969 92.484375 321.558594 93.527344 324.652344 C 94.5625 327.742188 95.105469 331.074219 94.8125 334.46875 C 94.546875 337.847656 93.226562 341.3125 90.847656 343.984375 Z M 90.847656 343.984375 " fill-opacity="1" fill-rule="nonzero"/><path fill="#5271ff" d="M 250.238281 359.855469 C 246.878906 365.527344 238.6875 369.398438 227.894531 371.382812 C 212.335938 374.242188 197.265625 372.09375 195.339844 361.640625 C 194.003906 354.378906 198.910156 346.960938 207.246094 342.148438 C 207.25 342.140625 207.25 342.140625 207.25 342.140625 C 210.929688 340.019531 215.273438 338.394531 220.035156 337.523438 C 235.597656 334.664062 249.765625 340.824219 251.683594 351.277344 C 252.273438 354.480469 251.734375 357.351562 250.238281 359.855469 Z M 250.238281 359.855469 " fill-opacity="1" fill-rule="nonzero"/><path fill="#ffffff" d="M 250.238281 359.855469 C 246.878906 365.527344 238.6875 369.398438 227.894531 371.382812 C 212.335938 374.242188 197.265625 372.09375 195.339844 361.640625 C 194.003906 354.378906 198.910156 346.960938 207.246094 342.148438 C 207.097656 342.578125 200.957031 360.640625 222.0625 363.28125 C 234.480469 364.828125 244.238281 362.273438 250.238281 359.855469 Z M 250.238281 359.855469 " fill-opacity="1" fill-rule="nonzero"/><path fill="#2b2b2b" d="M 250.332031 351.527344 C 249.871094 348.800781 248.4375 346.253906 246.34375 344.273438 C 244.273438 342.273438 241.667969 340.773438 238.890625 339.75 C 233.296875 337.683594 227.066406 337.4375 221.167969 338.460938 C 215.261719 339.488281 209.496094 341.722656 204.824219 345.355469 C 202.5 347.164062 200.445312 349.3125 198.972656 351.757812 C 197.492188 354.191406 196.664062 356.949219 196.800781 359.644531 C 196.886719 360.996094 197.183594 362.308594 197.734375 363.460938 C 198.273438 364.621094 199.113281 365.617188 200.109375 366.46875 C 202.128906 368.171875 204.839844 369.191406 207.648438 369.785156 C 210.476562 370.378906 213.4375 370.585938 216.40625 370.542969 C 219.375 370.492188 222.367188 370.238281 225.335938 369.789062 C 231.253906 368.867188 237.203125 367.507812 242.351562 364.765625 C 244.898438 363.386719 247.210938 361.609375 248.742188 359.339844 C 250.257812 357.070312 250.765625 354.300781 250.332031 351.527344 Z M 253.042969 351.03125 L 253.207031 352.292969 C 253.257812 352.714844 253.34375 353.132812 253.3125 353.566406 C 253.304688 354.421875 253.324219 355.285156 253.132812 356.140625 C 252.90625 357.867188 252.191406 359.492188 251.335938 360.984375 C 249.496094 363.910156 246.847656 366.09375 244.058594 367.757812 C 241.246094 369.433594 238.242188 370.621094 235.203125 371.578125 C 232.160156 372.527344 229.066406 373.242188 225.9375 373.726562 C 219.691406 374.679688 213.238281 374.972656 206.8125 373.5625 C 205.214844 373.1875 203.621094 372.6875 202.078125 371.996094 C 200.542969 371.292969 199.027344 370.421875 197.710938 369.230469 C 196.402344 368.046875 195.261719 366.582031 194.550781 364.921875 C 193.824219 363.257812 193.5 361.492188 193.457031 359.765625 C 193.394531 356.269531 194.582031 352.910156 196.398438 350.152344 C 198.21875 347.371094 200.597656 345.078125 203.203125 343.191406 C 208.453125 339.453125 214.5625 337.207031 220.8125 336.261719 C 227.0625 335.339844 233.546875 335.664062 239.617188 337.71875 C 242.632812 338.769531 245.558594 340.285156 248.011719 342.492188 C 250.476562 344.660156 252.367188 347.675781 253.042969 351.03125 Z M 253.042969 351.03125 " fill-opacity="1" fill-rule="nonzero"/><path fill="#2b2b2b" d="M 273.238281 199.605469 C 255.039062 189.25 262.089844 165.601562 262.164062 165.367188 L 264.789062 166.175781 C 264.519531 167.0625 258.324219 187.957031 274.597656 197.21875 Z M 273.238281 199.605469 " fill-opacity="1" fill-rule="nonzero"/><path fill="#2b2b2b" d="M 103.082031 159.523438 L 102.742188 156.796875 C 118.625 154.828125 126.269531 133.804688 126.34375 133.59375 L 128.933594 134.511719 C 128.605469 135.445312 120.65625 157.34375 103.082031 159.523438 Z M 103.082031 159.523438 " fill-opacity="1" fill-rule="nonzero"/><path fill="#ffffff" d="M 156.222656 225.191406 C 156.222656 230.722656 151.742188 235.210938 146.210938 235.210938 C 145.207031 235.210938 144.238281 235.066406 143.324219 234.789062 C 139.195312 233.550781 136.191406 229.71875 136.191406 225.1875 C 136.191406 220.152344 139.902344 216 144.734375 215.285156 C 145.214844 215.207031 145.710938 215.175781 146.210938 215.175781 C 151.742188 215.175781 156.222656 219.65625 156.222656 225.191406 Z M 156.222656 225.191406 " fill-opacity="1" fill-rule="nonzero"/><path fill="#5271ff" d="M 156.222656 225.191406 C 156.222656 230.722656 151.742188 235.210938 146.210938 235.210938 C 145.207031 235.210938 144.238281 235.066406 143.324219 234.789062 C 150.871094 227.757812 146.871094 218.859375 144.734375 215.285156 C 145.214844 215.207031 145.710938 215.175781 146.210938 215.175781 C 151.742188 215.175781 156.222656 219.65625 156.222656 225.191406 Z M 156.222656 225.191406 " fill-opacity="1" fill-rule="nonzero"/><path fill="#2b2b2b" d="M 146.207031 216.210938 C 141.257812 216.210938 137.230469 220.242188 137.230469 225.191406 C 137.230469 230.140625 141.257812 234.167969 146.207031 234.167969 C 151.160156 234.167969 155.1875 230.140625 155.1875 225.191406 C 155.1875 220.238281 151.15625 216.210938 146.207031 216.210938 Z M 146.207031 236.246094 C 140.109375 236.246094 135.152344 231.289062 135.152344 225.191406 C 135.152344 219.09375 140.109375 214.132812 146.207031 214.132812 C 152.304688 214.132812 157.265625 219.09375 157.265625 225.191406 C 157.265625 231.289062 152.304688 236.246094 146.207031 236.246094 Z M 146.207031 236.246094 " fill-opacity="1" fill-rule="nonzero"/><path fill="#5271ff" d="M 115.253906 61.613281 L 123.894531 20.796875 L 128.640625 21.542969 L 123.226562 58.023438 Z M 115.253906 61.613281 " fill-opacity="1" fill-rule="nonzero"/><path fill="#2b2b2b" d="M 124.710938 21.976562 L 116.695312 59.828125 L 122.28125 57.3125 L 127.464844 22.410156 Z M 113.8125 63.402344 L 123.085938 19.617188 L 129.820312 20.679688 L 124.167969 58.738281 Z M 113.8125 63.402344 " fill-opacity="1" fill-rule="nonzero"/><path fill="#5271ff" d="M 122.964844 124.734375 C 122.964844 124.734375 121.839844 124.3125 120.160156 123.585938 C 116.730469 122.09375 111.027344 119.316406 108.089844 116.246094 C 103.710938 111.671875 106.007812 75.105469 107.972656 68.695312 C 109.109375 64.960938 116.066406 60.84375 121.664062 58.0625 C 125.65625 56.078125 128.957031 54.773438 128.957031 54.773438 Z M 122.964844 124.734375 " fill-opacity="1" fill-rule="nonzero"/><path fill="#ffffff" d="M 122.964844 124.734375 C 122.964844 124.734375 121.839844 124.3125 120.160156 123.585938 C 104.609375 105.269531 119.292969 60.746094 119.292969 60.746094 L 121.660156 58.058594 C 125.652344 56.078125 128.953125 54.773438 128.953125 54.773438 Z M 122.964844 124.734375 " fill-opacity="1" fill-rule="nonzero"/><path fill="#2b2b2b" d="M 129.339844 55.734375 C 125.929688 57.246094 122.527344 58.902344 119.292969 60.746094 C 117.671875 61.667969 116.097656 62.660156 114.59375 63.703125 C 113.105469 64.753906 111.671875 65.898438 110.570312 67.167969 C 110.035156 67.800781 109.597656 68.480469 109.414062 69.078125 C 109.191406 69.8125 109.035156 70.757812 108.890625 71.644531 C 108.613281 73.464844 108.414062 75.328125 108.242188 77.195312 C 107.882812 80.929688 107.644531 84.691406 107.488281 88.449219 C 107.324219 92.210938 107.234375 95.976562 107.285156 99.722656 C 107.34375 103.464844 107.460938 107.230469 107.976562 110.820312 C 108.046875 111.265625 108.105469 111.714844 108.199219 112.140625 L 108.332031 112.789062 L 108.492188 113.402344 C 108.542969 113.613281 108.609375 113.800781 108.675781 113.984375 C 108.746094 114.15625 108.792969 114.382812 108.878906 114.511719 C 108.953125 114.644531 109.019531 114.847656 109.09375 114.933594 C 109.132812 114.976562 109.160156 115.023438 109.191406 115.074219 L 109.230469 115.148438 L 109.34375 115.257812 C 110.5 116.472656 111.976562 117.546875 113.5 118.546875 C 116.574219 120.523438 119.945312 122.238281 123.328125 123.761719 L 122.601562 125.707031 C 120.742188 125.105469 118.972656 124.402344 117.195312 123.632812 C 115.417969 122.871094 113.679688 122.015625 111.976562 121.03125 C 110.277344 120.042969 108.621094 118.9375 107.089844 117.46875 L 106.949219 117.332031 L 106.777344 117.125 L 106.445312 116.691406 C 106.230469 116.398438 106.136719 116.148438 105.984375 115.867188 C 105.824219 115.589844 105.765625 115.34375 105.65625 115.082031 C 105.554688 114.820312 105.460938 114.558594 105.394531 114.3125 L 105.179688 113.554688 L 105.007812 112.8125 C 104.886719 112.3125 104.8125 111.824219 104.722656 111.335938 C 104.386719 109.378906 104.230469 107.445312 104.105469 105.519531 C 103.980469 103.59375 103.925781 101.671875 103.914062 99.753906 C 103.882812 95.921875 103.980469 92.101562 104.175781 88.289062 C 104.378906 84.476562 104.667969 80.667969 105.082031 76.863281 C 105.304688 74.957031 105.550781 73.054688 105.890625 71.136719 C 106.078125 70.160156 106.238281 69.230469 106.585938 68.152344 C 107.003906 66.949219 107.683594 66.046875 108.382812 65.25 C 109.808594 63.683594 111.40625 62.5 113.03125 61.402344 C 114.664062 60.316406 116.355469 59.367188 118.0625 58.476562 C 121.488281 56.703125 124.972656 55.148438 128.578125 53.792969 Z M 129.339844 55.734375 " fill-opacity="1" fill-rule="nonzero"/><path fill="#5271ff" d="M 307.789062 96.679688 L 314.09375 55.433594 L 309.386719 54.460938 L 301.59375 90.511719 Z M 307.789062 96.679688 " fill-opacity="1" fill-rule="nonzero"/><path fill="#2b2b2b" d="M 302.730469 90.175781 L 307.070312 94.496094 L 312.914062 56.253906 L 310.183594 55.6875 Z M 308.507812 98.859375 L 300.460938 90.84375 L 308.589844 53.234375 L 315.269531 54.617188 Z M 308.507812 98.859375 " fill-opacity="1" fill-rule="nonzero"/><path fill="#5271ff" d="M 295.230469 150.332031 C 292.847656 151.476562 289.503906 152.132812 286.414062 152.511719 C 282.113281 153.039062 278.316406 153.03125 278.316406 153.03125 L 297.378906 85.445312 C 297.378906 85.445312 300.652344 88.414062 304.113281 92.277344 C 308.101562 96.707031 312.332031 102.300781 312.105469 105.875 C 311.683594 112.5625 300.941406 147.59375 295.230469 150.332031 Z M 295.230469 150.332031 " fill-opacity="1" fill-rule="nonzero"/><path fill="#ffffff" d="M 286.414062 152.511719 C 282.113281 153.039062 278.316406 153.03125 278.316406 153.03125 L 297.378906 85.445312 C 297.378906 85.445312 300.652344 88.414062 304.113281 92.277344 C 303.828125 99.65625 301.726562 131.867188 286.414062 152.511719 Z M 286.414062 152.511719 " fill-opacity="1" fill-rule="nonzero"/><path fill="#2b2b2b" d="M 278.316406 154.070312 L 278.320312 151.992188 C 278.433594 151.992188 289.359375 151.996094 294.78125 149.394531 C 299.648438 147.058594 310.597656 113.285156 311.070312 105.8125 C 311.394531 100.742188 300.789062 89.945312 296.679688 86.210938 L 298.074219 84.671875 C 299.664062 86.113281 313.589844 98.960938 313.148438 105.941406 C 312.738281 112.402344 302.039062 148.21875 295.683594 151.265625 C 289.828125 154.078125 278.785156 154.074219 278.316406 154.070312 Z M 278.316406 154.070312 " fill-opacity="1" fill-rule="nonzero"/><path fill="#5271ff" d="M 278.34375 152.960938 C 277.5625 153.859375 276.761719 154.734375 275.925781 155.585938 C 274.085938 157.5 272.117188 159.292969 270.035156 160.984375 C 265.605469 164.570312 260.675781 167.648438 255.242188 170.183594 C 239.011719 177.75 218.359375 180.402344 193.710938 176.898438 C 169.417969 171.488281 151.019531 161.726562 138.507812 148.921875 C 134.320312 144.632812 130.78125 140.011719 127.90625 135.09375 C 127.710938 134.769531 127.523438 134.441406 127.34375 134.113281 C 112.816406 108.324219 116.765625 74.695312 135.414062 39.121094 C 140.902344 28.664062 148.410156 20.722656 157.203125 14.949219 C 176.355469 2.371094 201.585938 0.046875 225.160156 4.226562 C 244.640625 7.875 263.617188 16.082031 277.226562 29.324219 C 287.605469 39.402344 294.867188 52.410156 296.851562 68.527344 C 297.601562 74.582031 298.035156 80.476562 298.167969 86.1875 C 298.839844 113.625 292.410156 136.761719 278.34375 152.960938 Z M 278.34375 152.960938 " fill-opacity="1" fill-rule="nonzero"/><path fill="#f6f4f1" d="M 277.230469 29.324219 C 266.804688 22.835938 249.613281 14.835938 222.253906 10.019531 C 196.132812 5.425781 172.960938 9.890625 157.207031 14.949219 C 176.359375 2.371094 201.585938 0.046875 225.160156 4.226562 C 244.644531 7.878906 263.617188 16.085938 277.230469 29.324219 Z M 277.230469 29.324219 " fill-opacity="1" fill-rule="nonzero"/><path fill="#ffffff" d="M 275.925781 155.585938 C 274.085938 157.5 272.117188 159.292969 270.035156 160.984375 C 265.605469 164.570312 260.675781 167.648438 255.242188 170.183594 C 239.011719 177.75 218.359375 180.402344 193.710938 176.898438 C 169.417969 171.488281 151.019531 161.726562 138.507812 148.921875 C 134.320312 144.632812 130.78125 140.011719 127.90625 135.09375 C 127.710938 134.769531 127.523438 134.441406 127.34375 134.113281 C 124.089844 120.441406 122.5 94.816406 135.898438 69.113281 C 158.15625 26.402344 180.152344 19.25 221.136719 26.714844 C 258.410156 33.503906 291.394531 59.972656 284.582031 118.644531 C 282.894531 133.195312 279.738281 145.425781 275.925781 155.585938 Z M 275.925781 155.585938 " fill-opacity="1" fill-rule="nonzero"/><path fill="#2b2b2b" d="M 277.1875 151.957031 C 283.53125 144.601562 288.140625 135.847656 291.203125 126.605469 C 292.765625 121.984375 293.878906 117.214844 294.710938 112.398438 C 295.535156 107.582031 296.09375 102.703125 296.3125 97.808594 C 296.824219 88.015625 296.3125 78.152344 295.066406 68.414062 C 293.832031 58.816406 290.457031 49.527344 285.09375 41.492188 C 282.414062 37.476562 279.28125 33.761719 275.804688 30.386719 C 272.320312 27.019531 268.480469 24.015625 264.425781 21.332031 C 256.3125 15.953125 247.269531 11.992188 237.929688 9.125 C 233.253906 7.695312 228.472656 6.558594 223.667969 5.726562 C 218.847656 4.921875 213.96875 4.386719 209.085938 4.15625 C 199.324219 3.722656 189.484375 4.5 180.046875 6.894531 C 175.335938 8.097656 170.734375 9.710938 166.339844 11.761719 C 161.941406 13.800781 157.796875 16.355469 153.972656 19.308594 C 150.144531 22.265625 146.664062 25.664062 143.652344 29.453125 C 140.621094 33.238281 138.070312 37.335938 135.890625 41.738281 C 131.402344 50.492188 127.574219 59.59375 124.777344 69 L 123.734375 72.527344 L 122.882812 76.105469 L 122.453125 77.890625 L 122.238281 78.785156 L 122.074219 79.6875 L 121.421875 83.296875 C 121.316406 83.898438 121.195312 84.5 121.101562 85.105469 L 120.445312 90.566406 C 120.316406 91.78125 120.292969 93 120.210938 94.21875 L 120.109375 96.046875 L 120.054688 96.960938 L 120.066406 97.875 C 120.117188 100.3125 120.039062 102.753906 120.316406 105.175781 C 120.433594 106.390625 120.488281 107.605469 120.636719 108.8125 C 120.824219 110.015625 121.003906 111.21875 121.171875 112.425781 C 121.269531 113.027344 121.328125 113.632812 121.449219 114.230469 L 121.835938 116.011719 C 122.101562 117.195312 122.332031 118.398438 122.625 119.578125 L 123.691406 123.074219 C 123.875 123.65625 124.027344 124.25 124.238281 124.820312 L 124.925781 126.519531 C 125.394531 127.640625 125.824219 128.789062 126.335938 129.894531 L 128.046875 133.136719 C 128.335938 133.671875 128.609375 134.21875 128.914062 134.75 C 129.222656 135.273438 129.542969 135.796875 129.867188 136.316406 C 130.519531 137.347656 131.199219 138.363281 131.902344 139.363281 C 134.726562 143.355469 137.972656 147.042969 141.546875 150.386719 C 148.695312 157.085938 157.09375 162.386719 166 166.515625 C 174.917969 170.648438 184.375 173.574219 193.984375 175.734375 L 193.890625 175.71875 C 201.414062 176.738281 209 177.292969 216.570312 177.125 C 220.355469 177.070312 224.128906 176.765625 227.882812 176.339844 C 231.632812 175.886719 235.347656 175.207031 239.015625 174.339844 C 242.679688 173.476562 246.269531 172.324219 249.777344 170.976562 C 253.277344 169.617188 256.6875 168.027344 259.929688 166.148438 C 266.425781 162.402344 272.316406 157.628906 277.1875 151.957031 Z M 279.496094 153.960938 C 274.351562 159.867188 268.148438 164.816406 261.363281 168.648438 C 257.972656 170.582031 254.417969 172.210938 250.785156 173.589844 C 247.140625 174.960938 243.425781 176.125 239.640625 176.988281 C 235.859375 177.851562 232.035156 178.523438 228.1875 178.960938 C 224.339844 179.367188 220.476562 179.652344 216.609375 179.683594 C 208.882812 179.804688 201.171875 179.167969 193.546875 178.101562 L 193.5 178.09375 L 193.457031 178.085938 C 183.71875 175.855469 174.113281 172.84375 165.03125 168.589844 C 155.960938 164.335938 147.378906 158.878906 140.054688 151.960938 C 136.394531 148.507812 133.066406 144.691406 130.175781 140.566406 C 129.453125 139.535156 128.757812 138.484375 128.089844 137.417969 C 127.757812 136.882812 127.433594 136.34375 127.113281 135.800781 C 126.800781 135.253906 126.519531 134.6875 126.222656 134.136719 L 124.445312 130.800781 C 123.914062 129.65625 123.421875 128.496094 122.90625 127.34375 L 122.132812 125.617188 C 121.886719 125.035156 121.699219 124.433594 121.480469 123.839844 L 120.207031 120.269531 C 119.847656 119.0625 119.546875 117.835938 119.207031 116.613281 L 118.71875 114.78125 C 118.558594 114.167969 118.484375 113.539062 118.363281 112.917969 C 118.140625 111.675781 117.925781 110.425781 117.71875 109.179688 C 117.546875 107.925781 117.472656 106.664062 117.355469 105.40625 C 117.058594 102.886719 117.125 100.363281 117.066406 97.839844 L 117.054688 96.890625 L 117.105469 95.945312 L 117.207031 94.058594 C 117.289062 92.800781 117.308594 91.535156 117.4375 90.285156 L 117.878906 86.535156 L 118.097656 84.660156 C 118.191406 84.039062 118.3125 83.421875 118.417969 82.800781 L 119.078125 79.085938 L 119.246094 78.15625 L 119.464844 77.238281 L 119.894531 75.40625 L 120.761719 71.738281 L 121.816406 68.121094 C 124.648438 58.488281 128.523438 49.203125 133.058594 40.289062 C 137.460938 31.230469 143.882812 22.925781 151.957031 16.71875 C 155.972656 13.597656 160.324219 10.902344 164.921875 8.75 C 169.515625 6.585938 174.316406 4.890625 179.214844 3.621094 C 189.03125 1.117188 199.191406 0.308594 209.246094 0.746094 C 214.273438 0.976562 219.277344 1.515625 224.25 2.34375 C 229.222656 3.199219 234.121094 4.355469 238.9375 5.824219 C 248.554688 8.765625 257.894531 12.832031 266.351562 18.417969 C 270.570312 21.207031 274.582031 24.335938 278.242188 27.859375 C 281.894531 31.394531 285.199219 35.300781 288.03125 39.539062 C 293.722656 48.011719 297.261719 57.882812 298.539062 67.96875 C 299.796875 77.914062 300.242188 87.960938 299.671875 97.992188 C 299.421875 103.007812 298.832031 108.011719 297.949219 112.96875 C 297.066406 117.921875 295.894531 122.839844 294.253906 127.621094 C 291.027344 137.179688 286.175781 146.292969 279.496094 153.960938 Z M 279.496094 153.960938 " fill-opacity="1" fill-rule="nonzero"/><path fill="#2b2b2b" d="M 281.753906 125.875 C 278.453125 143.992188 268.730469 159.359375 255.246094 170.1875 C 239.015625 177.757812 218.363281 180.40625 193.714844 176.90625 C 169.414062 171.492188 151.027344 161.730469 138.503906 148.925781 C 129.707031 134.039062 126.023438 116.226562 129.324219 98.109375 C 136.769531 57.246094 176.921875 30.335938 219.015625 38.003906 C 261.105469 45.671875 289.199219 85.007812 281.753906 125.875 Z M 281.753906 125.875 " fill-opacity="1" fill-rule="nonzero"/><path fill="#f6f4f1" d="M 139.921875 111.980469 C 137.484375 112.160156 140.007812 131.285156 151.640625 146.105469 C 164.773438 162.832031 187.847656 167.488281 188.6875 164.460938 C 189.910156 160.050781 173.140625 159.449219 158.042969 144.742188 C 145.207031 132.234375 142.613281 111.78125 139.921875 111.980469 Z M 139.921875 111.980469 " fill-opacity="1" fill-rule="nonzero"/><path fill="#f6f4f1" d="M 272.019531 100.089844 C 273.753906 99.75 273.6875 92.613281 270.824219 85.253906 C 267.796875 77.460938 260.886719 71.878906 259.464844 72.78125 C 258.457031 73.417969 260.023438 75.601562 263.917969 83.441406 C 269.382812 94.453125 270.441406 100.402344 272.019531 100.089844 Z M 272.019531 100.089844 " fill-opacity="1" fill-rule="nonzero"/><path fill="#f6f4f1" d="M 256.300781 67.160156 C 255.136719 64.84375 251.097656 64.488281 250.40625 65.554688 C 250.039062 66.125 250.636719 67.101562 250.894531 67.523438 C 252.183594 69.628906 255.292969 70.707031 256.292969 69.765625 C 256.898438 69.195312 256.683594 67.925781 256.300781 67.160156 Z M 256.300781 67.160156 " fill-opacity="1" fill-rule="nonzero"/></svg>